<?xml version="1.0" encoding="utf-8"?>
<!-- Generator: Adobe Illustrator 21.1.0, SVG Export Plug-In . SVG Version: 6.00 Build 0)  -->
<svg version="1.1" id="Layer_1" xmlns="http://www.w3.org/2000/svg" xmlns:xlink="http://www.w3.org/1999/xlink" x="0px" y="0px"
	 viewBox="0 0 481.6 77.9" style="enable-background:new 0 0 481.6 77.9;" xml:space="preserve">
<style type="text/css">
	.st0{fill:#393D4C;}
	.st1{fill:#327AB7;}
</style>
<g>
	<path class="st0" d="M114.4,17.3v35.5h23.2v8.1h-32V17.3H114.4z"/>
</g>
<g>
	<path class="st0" d="M150.8,54.6c-4.2-4.2-6.2-9.4-6.2-15.5c0-6.2,2.1-11.4,6.2-15.5c4.2-4.2,9.3-6.2,15.5-6.2
		c6.2,0,11.4,2.1,15.5,6.2c4.2,4.2,6.2,9.3,6.2,15.5c0,6.2-2.1,11.4-6.2,15.5c-4.2,4.2-9.3,6.2-15.5,6.2
		C160.2,60.9,155,58.8,150.8,54.6z M166.4,52.7c3.9,0,7-1.3,9.4-3.9c2.4-2.6,3.6-5.9,3.6-9.7c0-3.9-1.2-7.1-3.6-9.7
		c-2.4-2.6-5.6-3.9-9.5-3.9c-3.9,0-7,1.3-9.4,3.9c-2.4,2.6-3.6,5.9-3.6,9.7c0,3.9,1.2,7.1,3.6,9.7C159.4,51.4,162.5,52.7,166.4,52.7
		z"/>
</g>
<g>
	<path class="st0" d="M243.8,17.3h8.7v43.6h-8.7V17.3z"/>
</g>
<g>
	<path class="st0" d="M269.7,54.6c-4.2-4.2-6.3-9.4-6.3-15.6c0-6.1,2.1-11.3,6.3-15.4c4.2-4.2,9.3-6.3,15.5-6.3
		c6.2,0,11.6,1.9,16,5.8l-5.8,6.4c-3-2.3-6.4-3.5-10.2-3.5c-3.9,0-7.1,1.2-9.5,3.7c-2.4,2.4-3.6,5.5-3.6,9.3c0,4.1,1.2,7.3,3.6,9.6
		c2.4,2.4,5.6,3.6,9.5,3.6c3.9,0,7.3-1.2,10.1-3.5l5.8,6.4c-4.4,3.9-9.8,5.8-16,5.8C279,60.9,273.9,58.8,269.7,54.6z"/>
</g>
<g>
	<path class="st0" d="M364.8,54.2l-2.6,6.7h-9.3l17.4-43.6h8.7l17.4,43.6l-9.3,0l-2.6-6.7 M384.6,54.2h-19.8 M368.3,45.5h13.1
		 M381.4,45.5l-6.5-16.6l-6.6,16.6"/>
</g>
<polyline class="st0" points="396.5,17.3 399.7,25.4 414.2,25.4 414.2,60.9 423,60.9 423,25.4 437.5,25.4 437.5,17.3 "/>
<path class="st0" d="M329.1,37.8l8.1,8.1v4.4c-1.7,1.2-4.1,1.9-7.2,1.9c-3.9,0-7.1-1.2-9.5-3.6c-2.4-2.4-3.6-5.6-3.6-9.6
	c0-3.8,1.2-6.9,3.6-9.3c2.4-2.4,5.5-3.6,9.5-3.7c3.8,0,7.2,1.2,10.2,3.5l5.8-6.4c-4.5-3.9-9.8-5.8-16-5.8c-6.2,0-11.3,2.1-15.5,6.3
	c-4.2,4.2-6.3,9.3-6.3,15.4c0,6.3,2.1,11.5,6.3,15.6c4.2,4.2,9.3,6.2,15.5,6.3c6.2,0,11.6-1.9,16-5.8V37.8h-8.7H329.1z"/>
<path class="st0" d="M216,37.8l8.1,8.1v4.4c-1.7,1.2-4.1,1.9-7.2,1.9c-3.9,0-7.1-1.2-9.5-3.6c-2.4-2.4-3.6-5.6-3.6-9.6
	c0-3.8,1.2-6.9,3.6-9.3c2.4-2.4,5.5-3.6,9.5-3.7c3.8,0,7.2,1.2,10.2,3.5l5.8-6.4c-4.5-3.9-9.8-5.8-16-5.8c-6.2,0-11.3,2.1-15.5,6.3
	c-4.2,4.2-6.3,9.3-6.3,15.4c0,6.3,2.1,11.5,6.3,15.6c4.2,4.2,9.3,6.2,15.5,6.3c6.2,0,11.6-1.9,16-5.8V37.8h-8.7H216z"/>
<polygon class="st0" points="478.4,52.7 464.5,52.7 464.5,52.7 457.1,52.7 457.1,42.8 474.6,42.8 474.6,34.7 457.1,34.7 457.1,25.4 
	464.5,25.4 478.3,25.4 478.4,25.4 481.6,17.3 480.4,17.3 448.4,17.3 448.4,60.9 480.4,60.9 480.4,60.9 481.6,60.9 "/>
<g>
	<path class="st1" d="M38.9,17.3c-0.5,0.2-1,0.3-1.4,0.5c-2.5,1-4.7,2.5-6.6,4.4c3.6,3.4,7.5,7.5,10.7,10.1l2.9,2.3h-20
		c-0.3,1.5-0.5,3-0.5,4.6c0,1.5,0.2,3.1,0.5,4.6h20L41.6,46c-3.2,2.6-7.2,6.7-10.7,10.1c1.9,1.9,4.2,3.3,6.6,4.4
		c0.5,0.2,0.9,0.4,1.4,0.5C50,50.5,59.5,44,77.9,43.7v-9.1C59.5,34.4,50,27.8,38.9,17.3z"/>
	<path class="st1" d="M0,43.5h7l0.2,1.1c1.2,8.2,5.1,15.9,10.9,21.7l0.9,0.9l-4.9,4.9c2.2,2.1,4.7,4,7.3,5.7l5-5l0.9,0.5
		c14.6,7.8,33,5.4,45.1-5.9l-6.5-6.5c-7.5,6.9-18.3,9.5-28.2,6.7C29.2,65.3,22,59.1,18.4,51c-1.7-3.8-2.5-8-2.5-12.1
		c0-4.1,0.8-8.3,2.5-12.1c3.6-8.1,10.8-14.3,19.3-16.6c9.8-2.7,20.6-0.2,28.2,6.7l6.5-6.5C60.3-0.9,41.8-3.3,27.2,4.6L26.4,5l-5-5
		c-2.6,1.6-5.1,3.5-7.3,5.7l4.9,4.9L18,11.5C12.2,17.4,8.3,25,7.1,33.2L7,34.3H0"/>
</g>
</svg>
